<svg xmlns="http://www.w3.org/2000/svg" version="1.1" viewBox="0 0 300 400"><path fill="#344D75" d="M228 0H72C32.235 0 0 32.235 0 72v328l150-50 150 50V72c0-39.765-32.235-72-72-72z"/><path fill="#3460AC" stroke="#222" stroke-miterlimit="10" d="M220.2 13.806H79.8c-35.788 0-64.8 29.51-64.8 65.915v300.281l135-45.774L285 380V79.722c0-36.402-29.012-65.914-64.8-65.914z"/><circle fill="#354E76" stroke="#222" stroke-miterlimit="10" cx="150" cy="179" r="114.931"/><circle fill="#FFF" cx="150" cy="179" r="103.438"/><path fill="#FEE0C7" stroke="#000" stroke-width=".25" stroke-miterlimit="10" d="M210.987 104.77l9.34 24.04v22.32l-4.67 7.898 13.46 26.098v7.554l-12.087 4.12-6.043 16.484v13.736l9.065 23.35v17.857l-12.362 9.615h-24.174l-69.78-37.086 2.748-135.985z"/><path fill="none" stroke="#A67954" stroke-width=".942" stroke-miterlimit="10" d="M167.033 171.632c-1.616-3.228-3.77-6.2-8.242-8.07-2.987-.843-5.928-.988-8.79 0-4.48 2.616-4.482 3.327-8.24 8.07s-3.373 9.482-3.806 10.7c-.42 1.178.65 6.15 1.566 7.653 1.618 2.658 3.992 4.366 4.986 8.19s4.464 8.242 7.417 8.242h7.418"/><path fill="none" stroke="#523620" stroke-width=".942" stroke-miterlimit="10" d="M214.695 78.4l-12.91 21.977M204.943 78.4l-9.34 17.58M85.717 126.75v58.24M167.033 130.046l7.712 6.044M151.923 142.683l15.11 4.395M180.22 147.078l1.097 3.983M118.133 130.046l-9.89 21.015M129.67 103.673l51.1 1.098M100.55 194.33l3.847 14.833"/><path fill="#A67954" d="M178.02 171.632l-21.818 91.693 27.314 14.517h24.174l12.362-9.615V250.37l-18.406 12.638-18.13-.55-15.934-9.34 23.625-81.486"/><ellipse fill="#010101" cx="204.66" cy="159.54" rx="8.035" ry="4.396"/><path fill="#A67954" d="M212.037 149.935c2.15-1.623-10.09-2.878-14.002-4.782s.267-4.092 5.028-3.8c0 0 17.128 1.247 15.844 2.51"/><ellipse fill="#3460AC" cx="204.66" cy="159.54" rx="7.232" ry="3.956"/><circle cx="204.66" cy="159.54" r="2.5"/><path fill="#A67954" d="M215.217 201.746L199.43 205.5l-9.555 23.25 4.374 34.034 7.396.224-5.52-34.008 6.42-19.837 10.96-2.747M212.14 229.994l4.61 2.383 1.153 12.46-2.028 1.413-6.715-16.256"/><path fill="#76502B" stroke="#000" stroke-width=".25" stroke-miterlimit="10" d="M98.25 93c-5-4.25-27.368 27.895-27.368 27.895-8.368 9.895 0 80.008 0 80.008 3.7 13.79 9.148 27.182 21.428 39.03h21.427l4.945-40.98c3.948-20.982 12.176-36.643 26.373-44.884 0 0 17.41-1.932 21.427 0C170.5 156 178.02 171.63 178.02 171.63h13.186l1.65-35.126-9.89-13.66 28.02-11.708c8.016-7.94 13.16-24.215 18.132-40.98h-24.725L192.855 87.72c-27.903-4.712-81.972-2.548-89.008 0"/><path fill="none" stroke="#000" stroke-miterlimit="10" d="M202.546 232.377c0-6.657 3.775-12.044 8.44-12.044"/><path fill="none" stroke="#59381D" stroke-width=".25" stroke-miterlimit="10" d="M209.16 75.562L199.667 88M215.217 75.562l-6.977 13.826M223.667 75.562l-8.45 13.826M184.667 110l17.88-5.23M171.428 95.98h22.178M126.333 93.333l36.334-1.666M137.86 107.386l31.14-2.72M169 126.75L180.77 138M169 140.554l5.884 9.38M185.667 151.06l2.46 8.48M100.55 100.377l-12.217 12.956M100.55 115l-14.833 11.75M113.188 104.222l9.145-3.845M129.67 123l20.33 3.75M139.835 136.09l8.305 4.464M84.81 180.254c-9.79-22.062-11.144-42.828-3.028-46.43M102.77 189.112c-9.788-22.062-11.142-42.828-3.026-46.43M117.902 165.897c-9.79-22.062-11.143-42.828-3.027-46.43M80.645 201.746l11.022 22.99M98.606 203.667l5.79 21.07"/></svg>