<svg xmlns="http://www.w3.org/2000/svg" xmlns:xlink="http://www.w3.org/1999/xlink" version="1.1" viewBox="0 50 300 300">
  <symbol id="codepen-icon">
    <title>Codepen samples</title>
    <path d="M150.1 50C67.2 50 0 117.3 0 200.1s67.2 150 150 150.1c82.9 0 150.1-67.2 150.1-150.1S233 50 150 50h.1zm0 275.6c-69.2 0-125.5-56.3-125.5-125.5S80.9 74.8 150 74.8c69.2 0 125.5 56.3 125.5 125.5S219.3 325.5 150 325.6h.1z"/><path d="M242.9 170.8c0-.1 0-.2-.1-.3 0-.2-.1-.4-.1-.7 0-.1-.1-.3-.1-.4-.1-.2-.1-.4-.2-.6-.1-.1-.1-.3-.2-.4-.1-.2-.2-.4-.3-.5-.1-.1-.2-.2-.2-.4-.1-.2-.2-.3-.3-.5l-.3-.3-.4-.4-.3-.3c-.1-.1-.3-.3-.5-.4-.1-.1-.2-.2-.4-.3l-.1-.1-84.8-56.5c-2.7-1.8-6.2-1.8-8.9 0l-84.8 56.5-.1.1c-.1.1-.2.2-.4.3-.2.1-.3.3-.5.4l-.3.3c-.1.1-.3.3-.4.5l-.3.3c-.1.2-.2.3-.3.5-.1.1-.2.2-.2.3-.1.2-.2.3-.3.5-.1.1-.1.3-.2.4-.1.2-.1.4-.2.5 0 .1-.1.3-.1.4-.1.2-.1.4-.1.7 0 .1 0 .2-.1.3 0 .3-.1.7-.1 1v58c0 .3 0 .5.3.7 0 .3 0 .3.3.4.1.3.3.5.3.5.1.2 0 .2.3.4.1.3.3.3.3.5.1 0 .3.2.3.2.1.3.3.3.3.5.1 0 .3.3.3.3.1.3.3.3.5.5.1 0 .3.3.3.3.1.3.3.3.5.4.1 0 .3.2.3.2l.3.1 84.6 56.8c1.3 1 3 1.3 4.5 1.3s3.1-.5 4.4-1.3l84.8-56.6.1-.1c.1-.1.2-.2.4-.3.2-.1.3-.3.5-.4l.3-.3.4-.4.3-.3c.1-.2.2-.3.3-.5.1-.1.2-.2.2-.4.1-.2.2-.4.3-.5.1-.1.1-.3.2-.4.1-.2.1-.4.2-.6 0-.1.1-.3.1-.4.1-.2.1-.4.1-.7 0-.1 0-.2.1-.3 0-.3.1-.7.1-1v-56.6c-.1-.3 0-.6-.3-1h-.3zm-84.8-40.6l62.5 41.7-27.9 18.7-34.6-23.1v-37.3zm-16 .1v37.2l-34.6 23.1-27.9-18.7 62.5-41.6zm-68.8 56.5l20 13.3-20 13.4v-26.7zm68.8 83.3l-62.5-41.6 27.9-18.7 34.6 23.1v37.2zm8-51.1l-28.2-18.9 28.2-18.9 28.2 18.9-28.2 18.9zm8 51.1v-37.2l34.6-23.1 27.9 18.7-62.5 41.6zm68.9-56.6l-20-13.4 20-13.3v26.7z"/>
  </symbol>
  <symbol id="email-icon">
    <title>Send me an e-mail</title>
    <path d="M150 50C67.2 50 0 117.2 0 200s67.2 150 150 150 150-67.2 150-150S232.8 50 150 50zm-75 75h150c2.7 0 5.3.6 7.7 1.7L150 223.1l-82.7-96.4c2.4-1.1 5-1.7 7.7-1.7zM56.3 256.3V143.8v-1.2l55 64.1-54.4 54.4c-.4-1.6-.6-3.2-.6-4.8zM225 275H75c-1.7 0-3.3-.2-4.8-.6l53.4-53.4 26.5 30.9 26.5-30.9 53.4 53.4c-1.7.4-3.3.6-5 .6zm18.8-18.7c0 1.7-.2 3.3-.6 4.8l-54.4-54.4 55-64.1v113.7z"/>
  </symbol>
  <symbol id="github-icon">
    <title>Github projects</title>
    <path d="M150 50C67.1 50 0 117.1 0 200c0 66.4 42.9 122.4 102.6 142.3 7.5 1.3 10.3-3.2 10.3-7.1 0-3.6-.2-15.4-.2-27.9-37.7 6.9-47.4-9.2-50.4-17.6-1.7-4.3-9-17.6-15.4-21.2-5.3-2.8-12.8-9.7-.2-9.9 11.8-.2 20.2 10.9 23.1 15.4 13.5 22.7 35.1 16.3 43.7 12.4 1.3-9.8 5.3-16.3 9.6-20.1-33.4-3.7-68.3-16.7-68.3-74.1 0-16.3 5.8-29.8 15.4-40.3-1.5-3.8-6.8-19.1 1.5-39.8 0 0 12.6-3.9 41.3 15.4 12-3.4 24.8-5.1 37.5-5.1 12.8 0 25.5 1.7 37.5 5.1 28.7-19.5 41.3-15.4 41.3-15.4 8.3 20.6 3 36 1.5 39.8 9.6 10.5 15.4 23.8 15.4 40.3 0 57.6-35.1 70.3-68.4 74.1 5.4 4.7 10.1 13.7 10.1 27.8 0 20.1-.2 36.2-.2 41.3 0 3.9 2.8 8.6 10.3 7.1 59.1-20.1 102-76.3 102-142.5 0-82.9-67.1-150-150-150z"/>
  </symbol>
  <symbol id="pdf-icon">
    <title>Download my résumé (PDF)</title>
    <path d="M61.2 289.4c6.1-2.8 15.5-11.6 29.4-33.9-1.9 1.8-4 3.7-4.8 4.4-13.3 10.9-22.3 23.2-24.6 29.5zM140.5 188c-3.4 8.8-8 19.5-15.2 33.2-3 5.6-5.9 10.9-8.7 15.9 15.4-5.9 32.8-10.8 53-14.8-1.4-1-2.7-2.1-3.9-3.1-10-8.4-18.4-18.9-25.2-31.2zM141.9 148.3c2.8-4.9 5-11.6 4.8-21.1-.2-9.5-2.5-19.6-6.5-19.6-1.8 0-1.7 14.4-1.7 14.4 0 7.5 1.1 19 3.4 26.3z"/><path d="M150 50C67.2 50 0 117.2 0 200s67.2 150 150 150 150-67.2 150-150S232.8 50 150 50zm98.2 193.1c-1.3 2-3.5 3.5-6.2 4.2-1.7.4-3.8.7-6.2.7-13.6 0-35.2-6.9-52.7-16.7-23 3.4-49.2 9.7-72.3 17.2-20 34.8-34.5 50.4-47 50.4-2.3 0-4.6-.5-6.8-1.6l-5-2.5c-3.1-1.8-3.6-5.6-3-8.6 1.9-9.4 13.5-21.3 31.1-31.8 2.1-1.2 10.9-5.9 11.3-6.1l5.1-2.7c5-8.5 10.5-18.6 16.5-30.4l.8-1.5c5.8-11.3 12.3-24 17.5-36.7l1.9-4.5c-7.3-27.8-11.3-49.2-7.4-63.5 1.3-4.6 6.2-7.6 12.1-7.6l3.2.1c5.4-.2 8.8 4 10.5 8l.6 1.4c.5 1.3.6 1.8.8 3.5 1.7 12.3-4.7 48.7-4.7 48.7-.3 1.4-.6 2.7-1 4.2 5.9 16.2 15.4 31 26.8 41.6 4.2 4 9.6 7.2 14.8 10.3 11.7-1.6 22.8-2.4 32-2.3 13.6.2 22.6 2.3 26.6 6.3 1.4 1.4 2.8 3.5 3 5.1.9 5.4.4 10.8-2.3 14.8z"/><path d="M237.8 229.7c-7.2-1.8-9.3-1.8-16.7-1.8-4 0-8.5.2-13.3.5 12.7 5.4 21.7 8.8 29 8.8 2.3 0 5.8-.4 7-1.2 1.3-.8 1.2-4.5-6-6.3z"/>
  </symbol>
  <symbol id="twitter-icon">
    <title>Twitter</title>
    <path d="M150 50C67.2 50 0 117.2 0 200s67.2 150 150 150 150-67.2 150-150S232.8 50 150 50zm81.7 106.9c.1 1.8.1 3.6.1 5.4 0 54.9-41.8 118.2-118.2 118.2-23.5 0-45.3-6.9-63.7-18.7 3.3.4 6.6.6 9.9.6 19.5 0 37.4-6.6 51.6-17.8-18.2-.3-33.5-12.3-38.8-28.9 2.5.5 5.1.7 7.8.7 3.8 0 7.5-.5 10.9-1.5-19-3.8-33.3-20.6-33.3-40.7v-.5c5.6 3.1 12 5 18.8 5.2-11.1-7.5-18.5-20.2-18.5-34.6 0-7.6 2-14.8 5.6-20.9 20.5 25.1 51.1 41.7 85.6 43.4-.7-3-1.1-6.2-1.1-9.5 0-22.9 18.6-41.5 41.6-41.5 11.9 0 22.7 5 30.3 13.1 9.5-1.9 18.4-5.3 26.4-10.1-3.1 9.7-9.7 17.8-18.3 23 8.4-1 16.4-3.2 23.9-6.5-5.5 8.4-12.5 15.7-20.6 21.6z"/>
  </symbol>
</svg>